# Blender v2.80 (sub 54) OBJ File: 'schody.blend'
# www.blender.org
mtllib schody.mtl
o Cube
v 0.500000 -0.500000 -0.500000
v 0.500000 -0.500000 0.500000
v 0.000000 -0.500000 -0.500000
v 0.000000 -0.500000 0.500000
v 0.000000 0.000000 -0.500000
v -0.500000 -0.500000 0.500000
v -0.500000 -0.500000 -0.500000
v 0.312500 -0.500000 0.500000
v -0.500000 0.500000 0.500000
v -0.500000 0.500000 -0.500000
v 0.250000 -0.250000 0.500000
v -0.250000 0.250000 -0.500000
v 0.250000 -0.250000 -0.500000
v -0.489996 0.062019 -0.945083
v -0.489996 0.062019 -1.038790
v -0.216096 0.062019 -0.945083
v -0.216096 0.062019 -1.038790
v 0.500000 -0.375000 -0.500000
v 0.500000 -0.375000 0.500000
v -0.375000 0.499872 0.500000
v 0.000000 0.125000 -0.500000
v 0.125000 0.000000 0.500000
v 0.000000 0.125000 0.500000
v 0.312500 -0.500000 -0.500000
v -0.375000 0.499872 -0.500000
v 0.125000 0.000000 -0.500000
v 0.375000 -0.250000 0.500000
v 0.250000 -0.125000 0.500000
v -0.125000 0.250000 -0.500000
v -0.250000 0.374872 -0.500000
v 0.375000 -0.250000 -0.500000
v 0.250000 -0.125000 -0.500000
v -0.125000 0.250000 0.500000
v -0.250000 0.374872 0.500000
v -0.125000 0.125000 0.500000
v -0.250000 0.250000 0.500000
v 0.125000 -0.125000 -0.500000
v 0.375000 -0.375000 -0.500000
v -0.375000 0.374936 -0.500000
v -0.125000 0.125000 -0.500000
v 0.000000 0.000000 0.500000
v 0.375000 -0.375000 0.500000
v 0.125000 -0.125000 0.500000
v -0.375000 0.374936 0.500000
vt 0.125000 0.999872
vt 0.000000 1.000000
vt 0.125000 0.874936
vt 1.000000 0.000000
vt 1.000000 1.000000
vt 0.000000 1.000000
vt 0.375000 0.625000
vt 0.000000 0.000000
vt 0.500000 0.500000
vt 0.875000 0.250000
vt 0.750000 0.250000
vt 0.875000 0.125000
vt 0.000000 0.000000
vt 0.500000 0.000000
vt 0.625000 0.375000
vt 0.500000 0.625000
vt 0.500000 0.000000
vt 0.250000 0.250000
vt 0.187500 0.000000
vt 0.375000 0.375000
vt 0.000000 0.125000
vt 1.000000 0.125000
vt 1.000000 0.250000
vt 0.000000 0.250000
vt 0.875000 0.874936
vt 0.750000 0.874872
vt 0.750000 0.750000
vt 1.000000 1.000000
vt 0.875000 0.999872
vt 1.000000 0.000000
vt 0.625000 0.625000
vt 1.000000 0.875048
vt 1.000000 1.000000
vt 0.000000 1.000000
vt 0.000000 0.875048
vt 0.812500 0.000000
vt 0.250000 0.874872
vt 0.250000 0.750000
vt 0.625000 0.500000
vt 0.500000 0.500000
vt 0.000000 0.000000
vt 0.125000 0.125000
vt 0.000000 0.125000
vt 0.375000 0.750000
vt 0.250000 0.375000
vt 0.375000 0.500000
vt 1.000000 0.000000
vt 1.000000 0.125000
vt 0.125000 0.250000
vt 0.500000 0.625000
vt 0.625000 0.750000
vt 1.000000 0.000000
vt 1.000000 0.125000
vt 0.000000 0.125000
vt 0.000000 0.000000
vt 0.750000 0.375000
vt 1.000000 0.750096
vt 1.000000 0.874984
vt 0.000000 0.874984
vt 0.000000 0.750096
vt 1.000000 0.375000
vt 0.000000 0.375000
vt 0.000000 0.250000
vt 1.000000 0.250000
vt 0.000000 0.625080
vt 1.000000 0.625080
vt 1.000000 0.750096
vt 0.000000 0.750096
vt 1.000000 0.500000
vt 0.000000 0.500000
vt 0.000000 0.375000
vt 1.000000 0.375000
vt 1.000000 0.500064
vt 1.000000 0.625080
vt 0.000000 0.625080
vt 0.000000 0.500064
vt 1.000000 0.625000
vt 0.000000 0.625000
vt 0.000000 0.500000
vt 1.000000 0.500000
vt 1.000000 0.375048
vt 1.000000 0.500064
vt 0.000000 0.500064
vt 0.000000 0.375048
vt 0.000000 0.625000
vt 1.000000 0.625000
vt 1.000000 0.750000
vt 0.000000 0.750000
vt 0.000000 0.250032
vt 1.000000 0.250032
vt 1.000000 0.375048
vt 0.000000 0.375048
vt 1.000000 0.875000
vt 0.000000 0.875000
vt 0.000000 0.750000
vt 1.000000 0.750000
vt 1.000000 0.125016
vt 1.000000 0.250032
vt 0.000000 0.250032
vt 0.000000 0.125016
vt 0.000000 0.875000
vt 1.000000 0.875000
vt 1.000000 1.000000
vt 0.000000 1.000000
vt 1.000000 0.000000
vt 1.000000 0.125016
vt 0.000000 0.125016
vt 0.000000 0.000000
vn 0.0000 0.0000 1.0000
vn -1.0000 0.0000 0.0000
vn 0.0000 0.0000 -1.0000
vn 0.0005 1.0000 0.0000
vn 1.0000 0.0000 0.0000
vn 0.0010 1.0000 0.0000
vn 0.0000 1.0000 0.0000
usemtl Material
s off
f 20/1/1 9/2/1 44/3/1
f 6/4/2 9/5/2 10/6/2
f 35/7/1 6/8/1 41/9/1
f 27/10/1 11/11/1 42/12/1
f 10/6/2 7/13/2 6/4/2
f 6/8/1 4/14/1 43/15/1 41/9/1
f 23/16/1 35/7/1 41/9/1
f 6/8/1 44/3/1 9/2/1
f 3/17/3 13/18/3 24/19/3
f 3/17/3 37/20/3 13/18/3
f 39/21/4 44/22/4 34/23/4 30/24/4
f 39/25/3 30/26/3 12/27/3
f 10/28/3 25/29/3 39/25/3
f 7/30/3 12/27/3 40/31/3
f 7/30/3 39/25/3 12/27/3
f 39/32/5 25/33/5 20/34/5 44/35/5
f 4/14/1 11/11/1 43/15/1
f 11/11/1 4/14/1 8/36/1
f 34/37/1 44/3/1 36/38/1
f 22/39/1 41/9/1 43/15/1
f 3/17/3 7/30/3 5/40/3 37/20/3
f 1/41/3 24/19/3 38/42/3 18/43/3
f 7/30/3 40/31/3 5/40/3
f 33/44/1 36/38/1 35/7/1
f 6/8/1 36/38/1 44/3/1
f 35/7/1 36/38/1 6/8/1
f 37/20/3 32/45/3 13/18/3
f 5/40/3 26/46/3 37/20/3
f 8/36/1 2/47/1 19/48/1 42/12/1
f 13/18/3 38/42/3 24/19/3
f 13/18/3 31/49/3 38/42/3
f 7/30/3 10/28/3 39/25/3
f 40/31/3 21/50/3 5/40/3
f 12/27/3 29/51/3 40/31/3
f 42/12/1 11/11/1 8/36/1
f 9/52/6 20/53/6 25/54/6 10/55/6
f 28/56/1 43/15/1 11/11/1
f 12/57/5 30/58/5 34/59/5 36/60/5
f 33/61/7 29/62/7 12/63/7 36/64/7
f 35/65/5 40/66/5 29/67/5 33/68/5
f 23/69/7 21/70/7 40/71/7 35/72/7
f 5/73/5 21/74/5 23/75/5 41/76/5
f 22/77/7 26/78/7 5/79/7 41/80/7
f 37/81/5 26/82/5 22/83/5 43/84/5
f 37/85/7 43/86/7 28/87/7 32/88/7
f 11/89/5 13/90/5 32/91/5 28/92/5
f 27/93/7 31/94/7 13/95/7 11/96/7
f 38/97/5 31/98/5 27/99/5 42/100/5
f 38/101/7 42/102/7 19/103/7 18/104/7
f 1/105/5 18/106/5 19/107/5 2/108/5
